<svg width="34" height="22" viewBox="0 0 34 22" fill="none" xmlns="http://www.w3.org/2000/svg">
<path d="M13.3153 20.8951L13.3061 20.8916L13.2773 20.8776C13.1082 20.795 12.9406 20.7102 12.7743 20.6233C10.7754 19.568 8.90736 18.3284 7.20118 16.9249C4.17956 14.4201 0.978027 10.7031 0.978027 6.12508C0.978027 2.70908 4.2137 8.27765e-05 8.11909 8.27765e-05C9.20476 -0.00464155 10.2777 0.208147 11.258 0.622622C12.2383 1.0371 13.1009 1.6426 13.7815 2.39408C14.4623 1.64244 15.325 1.03685 16.3056 0.622368C17.2862 0.207886 18.3594 -0.00481723 19.4453 8.27765e-05C23.3493 8.27765e-05 26.585 2.70908 26.585 6.12508C26.585 10.7043 23.3835 14.4213 20.3619 16.9238C18.6557 18.3272 16.7877 19.5669 14.7887 20.6221C14.6225 20.7094 14.4548 20.7946 14.2858 20.8776L14.2569 20.8916L14.2477 20.8963L14.2438 20.8974C14.1014 20.9644 13.9427 20.9995 13.7815 20.9995C13.6204 20.9995 13.4617 20.9644 13.3193 20.8974L13.3153 20.8951Z" fill="white"/>
<path d="M24.9172 18.9668L28.5078 12.7335H26.0315V8.70012L22.3171 14.9335H24.9172V18.9668ZM25.4125 21.1668C24.2706 21.1668 23.1976 20.9743 22.1933 20.5893C21.189 20.2043 20.3155 19.6818 19.5726 19.0218C18.8297 18.3618 18.2416 17.5857 17.8082 16.6935C17.3749 15.8012 17.1582 14.8479 17.1582 13.8335C17.1582 12.819 17.3749 11.8657 17.8082 10.9735C18.2416 10.0812 18.8297 9.30512 19.5726 8.64512C20.3155 7.98512 21.189 7.46262 22.1933 7.07762C23.1976 6.69262 24.2706 6.50012 25.4125 6.50012C26.5543 6.50012 27.6274 6.69262 28.6316 7.07762C29.6359 7.46262 30.5095 7.98512 31.2524 8.64512C31.9952 9.30512 32.5834 10.0812 33.0167 10.9735C33.4501 11.8657 33.6667 12.819 33.6667 13.8335C33.6667 14.8479 33.4501 15.8012 33.0167 16.6935C32.5834 17.5857 31.9952 18.3618 31.2524 19.0218C30.5095 19.6818 29.6359 20.2043 28.6316 20.5893C27.6274 20.9743 26.5543 21.1668 25.4125 21.1668Z" fill="#894189"/>
<path d="M25.3373 18.5001L28.6015 12.8334H26.3504V9.16675L22.9736 14.8334H25.3373V18.5001ZM25.7876 20.5001C24.7495 20.5001 23.774 20.3251 22.8611 19.9751C21.9481 19.6251 21.1539 19.1501 20.4786 18.5501C19.8032 17.9501 19.2686 17.2445 18.8746 16.4334C18.4807 15.6223 18.2837 14.7556 18.2837 13.8334C18.2837 12.9112 18.4807 12.0445 18.8746 11.2334C19.2686 10.4223 19.8032 9.71675 20.4786 9.11675C21.1539 8.51675 21.9481 8.04175 22.8611 7.69175C23.774 7.34175 24.7495 7.16675 25.7876 7.16675C26.8256 7.16675 27.8011 7.34175 28.7141 7.69175C29.6271 8.04175 30.4212 8.51675 31.0966 9.11675C31.7719 9.71675 32.3066 10.4223 32.7005 11.2334C33.0945 12.0445 33.2914 12.9112 33.2914 13.8334C33.2914 14.7556 33.0945 15.6223 32.7005 16.4334C32.3066 17.2445 31.7719 17.9501 31.0966 18.5501C30.4212 19.1501 29.6271 19.6251 28.7141 19.9751C27.8011 20.3251 26.8256 20.5001 25.7876 20.5001Z" fill="white"/>
</svg>
